<svg width="24" height="24" viewBox="0 0 24 24" fill="none" xmlns="http://www.w3.org/2000/svg">
<path d="M22.2196 7.01363C21.9742 6.08979 21.2514 5.36225 20.3335 5.11529C18.6698 4.66663 11.9987 4.66663 11.9987 4.66663C11.9987 4.66663 5.32757 4.66663 3.66391 5.11529C2.74603 5.36221 2.02316 6.08979 1.77782 7.01363C1.33203 8.68813 1.33203 12.1818 1.33203 12.1818C1.33203 12.1818 1.33203 15.6755 1.77782 17.35C2.02316 18.2738 2.74603 19.0013 3.66391 19.2483C5.32757 19.697 11.9987 19.697 11.9987 19.697C11.9987 19.697 18.6698 19.697 20.3335 19.2483C21.2514 19.0013 21.9742 18.2738 22.2196 17.35C22.6654 15.6755 22.6654 12.1818 22.6654 12.1818C22.6654 12.1818 22.6654 8.68813 22.2196 7.01363Z" fill="#389B48"/>
<path d="M9.81641 15.3538L15.3922 12.1818L9.81641 9.00977V15.3538Z" fill="white"/>
</svg>
