<svg width="24" height="24" viewBox="0 0 24 24" fill="none" xmlns="http://www.w3.org/2000/svg">
<path d="M11.9984 6.58606C8.9737 6.58606 6.5212 9.01049 6.5212 12C6.5212 14.9901 8.9737 17.4135 11.9984 17.4135C15.0237 17.4135 17.4766 14.9901 17.4766 12C17.4766 9.01049 15.0237 6.58606 11.9984 6.58606ZM11.9984 15.5143C10.0351 15.5143 8.44274 13.941 8.44274 12C8.44274 10.059 10.035 8.48571 11.9984 8.48571C13.9622 8.48571 15.5545 10.059 15.5545 12C15.5545 13.9409 13.9622 15.5143 11.9984 15.5143ZM18.9726 6.37245C18.9726 7.07057 18.3994 7.63711 17.6926 7.63711C16.9859 7.63711 16.4126 7.07057 16.4126 6.37245C16.4126 5.67404 16.9858 5.10733 17.6926 5.10733C18.3994 5.10733 18.9726 5.67404 18.9726 6.37245ZM22.1054 5.09436C21.8327 4.40077 21.468 3.8131 20.8754 3.22691C19.6798 2.04436 18.044 1.59482 16.3969 1.5211C15.2589 1.46913 14.8957 1.45764 11.9984 1.45764C9.10211 1.45764 8.73886 1.46913 7.60095 1.5211C5.94982 1.59498 4.31595 2.04733 3.12257 3.22687C1.92453 4.41098 1.47182 6.02273 1.39607 7.65366C1.34424 8.77835 1.33203 9.13696 1.33203 12C1.33203 14.8631 1.34424 15.2222 1.39607 16.3473C1.47216 17.984 1.92407 19.5896 3.12249 20.7732C4.32074 21.9566 5.95095 22.4048 7.60095 22.4795C8.73886 22.5308 9.10211 22.5425 11.9984 22.5425C14.8957 22.5425 15.259 22.5308 16.3969 22.4795C18.0507 22.4046 19.6794 21.9561 20.8753 20.7732C22.0704 19.5912 22.5264 17.9747 22.6012 16.3473C22.6532 15.2222 22.6654 14.863 22.6654 11.9999C22.6654 9.13688 22.6532 8.77831 22.6012 7.65362C22.5496 6.5312 22.3692 5.76513 22.1054 5.09436ZM20.6811 16.2602C20.6284 17.4052 20.3593 18.5963 19.5163 19.4305C18.6622 20.2757 17.4751 20.5293 16.3093 20.5819C15.1842 20.6322 14.8473 20.6433 11.9984 20.6433C9.15057 20.6433 8.81366 20.6322 7.68849 20.5819C6.51974 20.5292 5.33445 20.2713 4.48107 19.4306C3.63016 18.5923 3.36828 17.4045 3.31616 16.2601C3.2652 15.1487 3.25403 14.8153 3.25403 11.9999C3.25403 9.18523 3.26524 8.85182 3.31616 7.73974C3.36811 6.59994 3.64249 5.40014 4.48091 4.57007C5.33099 3.72847 6.52861 3.47096 7.68857 3.41865C8.81366 3.36788 9.15057 3.35725 11.9984 3.35725C14.8469 3.35725 15.1842 3.36788 16.3093 3.41865C17.4774 3.47133 18.6647 3.72797 19.5162 4.5699C20.3682 5.41224 20.6283 6.59149 20.6811 7.73982C20.7327 8.85182 20.7439 9.18523 20.7439 12C20.7438 14.8153 20.7327 15.1487 20.6811 16.2602Z" fill="#389B48"/>
</svg>
