<svg width="24" height="24" viewBox="0 0 24 24" fill="none" xmlns="http://www.w3.org/2000/svg">
<path d="M22.6654 12C22.6654 17.3242 18.7645 21.7371 13.6654 22.5371V15.0834H16.1508L16.6237 12H13.6654V9.99921C13.6654 9.15546 14.0787 8.33337 15.4037 8.33337H16.7487V5.70837C16.7487 5.70837 15.5279 5.50004 14.3608 5.50004C11.9245 5.50004 10.332 6.97671 10.332 9.65004V12H7.6237V15.0834H10.332V22.5371C5.23286 21.7371 1.33203 17.3242 1.33203 12C1.33203 6.10921 6.10786 1.33337 11.9987 1.33337C17.8895 1.33337 22.6654 6.10921 22.6654 12Z" fill="#389B48"/>
<path d="M16.1521 15.0833L16.625 12H13.6667V9.99913C13.6667 9.15558 14.0799 8.33333 15.405 8.33333H16.75V5.70833C16.75 5.70833 15.5293 5.5 14.3623 5.5C11.9258 5.5 10.3333 6.97667 10.3333 9.65V12H7.625V15.0833H10.3333V22.537C10.8764 22.6222 11.433 22.6667 12 22.6667C12.567 22.6667 13.1236 22.6222 13.6667 22.537V15.0833H16.1521Z" fill="white"/>
</svg>
