<svg width="201" height="400" viewBox="0 0 201 400" fill="none" xmlns="http://www.w3.org/2000/svg">
<path d="M184.586 399.414C185.367 400.195 186.633 400.195 187.414 399.414L200.142 386.686C200.923 385.905 200.923 384.639 200.142 383.858C199.361 383.077 198.095 383.077 197.314 383.858L186 395.172L174.686 383.858C173.905 383.077 172.639 383.077 171.858 383.858C171.077 384.639 171.077 385.905 171.858 386.686L184.586 399.414ZM0 4C37.0938 4 67.0139 13.9508 91.0852 32.415C115.182 50.8987 133.564 78.027 147.356 112.616C174.965 181.859 184 280.524 184 398H188C188 280.476 178.986 181.141 151.071 111.134C137.101 76.098 118.351 48.2888 93.5197 29.2412C68.6626 10.1742 37.8573 0 0 0V4Z" fill="#FFC933"/>
</svg>
