<svg width="24" height="24" viewBox="0 0 24 24" fill="none" xmlns="http://www.w3.org/2000/svg">
<path d="M20.4817 7.60393C20.4945 7.79354 20.4945 7.98407 20.4945 8.1754C20.4945 14.0177 16.0913 20.7548 8.04096 20.7548V20.7513C5.66262 20.7545 3.33366 20.0663 1.33203 18.7689C1.67782 18.8106 2.0257 18.8319 2.37395 18.8327C4.3452 18.8347 6.25979 18.1667 7.80971 16.9364C5.93712 16.9008 4.29391 15.6671 3.72054 13.8661C4.37641 13.9937 5.0525 13.9677 5.69687 13.7902C3.65462 13.3735 2.18595 11.5608 2.18541 9.45633C2.18541 9.43735 2.18541 9.41841 2.18541 9.40031C2.79408 9.74303 3.47541 9.93285 4.172 9.95368C2.24849 8.65625 1.65512 6.07194 2.81683 4.05182C5.03933 6.81382 8.31821 8.49282 11.8374 8.67106C11.4846 7.13571 11.9669 5.52665 13.1036 4.44685C14.8662 2.77252 17.6388 2.85847 19.2964 4.63886C20.2766 4.44361 21.2165 4.08069 22.0757 3.56571C21.749 4.58953 21.0651 5.45856 20.1514 6.01108C21.0192 5.9075 21.8665 5.67303 22.6654 5.3155C22.0778 6.20317 21.3383 6.97809 20.4817 7.60393Z" fill="#389B48"/>
</svg>
