<?xml version="1.0" encoding="UTF-8"?><svg id="a" xmlns="http://www.w3.org/2000/svg" width="46" height="45.55" viewBox="0 0 46 45.55"><path d="M41,14.1c.46,.36,.92,.71,1.38,1.07,.68,.54,1.35,1.08,2.03,1.61,1.06,.82,1.58,1.87,1.58,3.13,0,7.16,0,14.32,0,21.47,0,2.31-2.03,4.16-4.57,4.16-12.3,0-24.61,0-36.91,0C2.05,45.54,0,43.67,0,41.43,0,34.24,0,27.04,0,19.85c0-1.28,.59-2.32,1.65-3.15,.99-.77,1.96-1.56,2.94-2.34,.14-.11,.29-.22,.43-.32,.06,0,.13,.02,.19,.03,0,.49-.04,.99,0,1.47,.06,.56-.23,.91-.68,1.23-.51,.36-.98,.77-1.48,1.16-.77,.6-1.16,1.36-1.16,2.3,0,6.91,0,13.83,0,20.74,0,.67,.13,1.32,.63,1.86,.6,.65,1.35,.92,2.27,.92,3.86-.02,7.73,0,11.59,0,8.23,0,16.46,0,24.68,0,1.77,0,2.88-1,2.88-2.6,0-7.02,0-14.04,0-21.06,0-.8-.31-1.46-.96-1.99-.6-.48-1.24-.94-1.8-1.46-.23-.21-.38-.55-.42-.85-.07-.53-.02-1.06-.02-1.59,.08-.04,.15-.06,.22-.08Zm-14.43,1.4c0,.65,0,1.29,0,1.94,0,.23,0,.47,.11,.67,.1,.19,.34,.44,.52,.44,.25,0,.6-.15,.73-.34,.18-.25,.23-.59,.26-.9,.12-1.23,.17-2.47-.21-3.68s-1.24-1.99-2.55-2.32c-1.49-.38-2.99-.38-4.47,.02-1.19,.32-2.12,1-2.64,2.03-1.01,1.99-.96,4.04-.18,6.06,.48,1.26,1.59,1.98,3,2.17,1.05,.15,2.12,.13,3.19,.14,1.45,.01,1.3-.18,1.35,1.19,.02,.52-.18,.73-.75,.72-1.35-.04-2.72,.08-4.05-.1-3.24-.43-4.87-1.95-5.39-4.88-.31-1.7-.32-3.41,.26-5.07,.92-2.6,3.01-3.9,5.86-4.3,1.55-.22,3.08-.12,4.6,.27,2.3,.59,3.7,1.99,4.21,4.08,.39,1.59,.5,3.22-.08,4.81-.74,1.99-3.13,2.63-4.96,1.36-.14-.09-.46-.08-.63,0-.81,.4-1.63,.67-2.57,.59-1.17-.1-1.99-.63-2.37-1.64-.52-1.39-.53-2.82-.1-4.22,.41-1.34,1.66-2.13,3.14-1.87,1.03,.18,2.04,.16,3.07,.15,.49,0,.69,.14,.68,.6-.03,.69,0,1.39,0,2.09h0Zm-2.32,1.04h0c0-.49,0-.98,0-1.46,0-.14-.05-.33-.16-.41-.44-.35-1.69-.18-1.91,.3-.46,1.02-.41,2.08,.05,3.09,.2,.44,.71,.48,1.42,.32,.53-.12,.71-.36,.63-.85-.05-.32,0-.66,0-.99ZM7.69,21.74c-.47-.36-.96-.69-1.39-1.08-.17-.15-.3-.42-.3-.64-.02-3.56-.03-7.12,0-10.68,.01-1.48,1.47-2.99,3.29-3.46,.44-.11,.9-.18,1.35-.18,8.4,0,16.8-.01,25.2,0,2.3,0,4.16,1.71,4.16,3.8,.01,3.3,0,6.6,.01,9.9,0,.39-.14,.65-.48,.88-.44,.3-.84,.63-1.36,1.03-.02-.3-.04-.46-.04-.62V9.89c-.02-1.62-.97-2.5-2.75-2.5-5.41,0-10.83,0-16.24,0-2.58,0-5.16,0-7.75,0-.46,0-.92,.03-1.37,.12-1.38,.28-2.17,1.19-2.17,2.47,0,3.72,0,7.43,0,11.15v.55s-.1,.03-.16,.04ZM3.53,41c.26-.33,.42-.61,.66-.81,1.59-1.28,3.21-2.54,4.81-3.81,3.01-2.38,6.01-4.75,9.02-7.13,1.35-1.06,2.69-2.12,4.05-3.17,.52-.4,.95-.38,1.48,.05,2.65,2.11,5.3,4.22,7.95,6.34,3.21,2.56,6.42,5.13,9.61,7.7,.22,.17,.41,.42,.49,.67,.12,.37-.07,.69-.44,.88-.42,.22-.81,.15-1.17-.13-.83-.65-1.65-1.3-2.47-1.95-3.9-3.11-7.8-6.22-11.7-9.33-.84-.67-1.68-1.33-2.48-2.02-.42-.36-.71-.35-1.15,0-5.57,4.42-11.17,8.81-16.75,13.22-.36,.28-.76,.49-1.19,.24-.27-.15-.44-.46-.71-.76Zm25.45-11.32c.75-.6,1.5-1.2,2.26-1.81,2.95-2.35,5.9-4.7,8.84-7.05,.1-.08,.2-.16,.31-.23,.4-.24,.97-.19,1.27,.11,.33,.33,.36,.84-.03,1.18-.53,.48-1.09,.92-1.65,1.38-3.06,2.45-6.12,4.89-9.17,7.35-.34,.27-.61,.32-.92,0-.27-.29-.56-.56-.92-.92Zm-12.43,.09c-.1,.12-.14,.18-.19,.22-1.46,1.17-.97,1.14-2.36,.05-3.15-2.46-6.29-4.94-9.43-7.41-.26-.21-.52-.41-.76-.64-.42-.39-.45-.91-.08-1.26,.36-.35,.89-.38,1.34-.03,.98,.75,1.95,1.52,2.91,2.28,2.72,2.15,5.44,4.29,8.15,6.44,.13,.1,.26,.21,.42,.35Zm.15-25.02c1.33-1.07,2.65-2.15,3.98-3.22,.5-.4,1-.81,1.51-1.21,.51-.39,1.08-.44,1.56-.05,1.81,1.45,3.61,2.91,5.41,4.36,.05,.04,.09,.1,.2,.24-.97,0-1.85,0-2.73,0-.15,0-.3-.15-.43-.24-.85-.67-1.71-1.34-2.55-2.02-.63-.51-.66-.51-1.27-.01-.84,.69-1.68,1.38-2.55,2.02-.23,.17-.58,.27-.88,.28-.74,.04-1.47,.01-2.22,.01-.01-.06-.03-.1-.04-.15Z"/></svg>