<?xml version="1.0" encoding="UTF-8"?><svg id="a" xmlns="http://www.w3.org/2000/svg" width="46" height="46.04" viewBox="0 0 46 46.04"><path d="M10.86,.35c-.99,.79-.94-.62-.94,22.59s-.1,22.12,1.26,22.78c.7,.34,.87,.35,12.07,.3,12.64-.05,11.89,.02,12.53-1.19,.27-.5,.28-2.09,.23-22.11l-.05-21.59-.62-.57-.64-.57h-11.71C11.4,0,11.3,0,10.86,.35Zm23.75,.84l.44,.34V44.36l-.37,.35c-.35,.34-.52,.34-11.67,.34H11.7l-.39-.37-.39-.35V1.52l.44-.34c.44-.35,.57-.35,11.62-.35,11.05,0,11.19,0,11.62,.35Z"/><path d="M22.22,3.25c-.05,.13-.07,.42-.03,.64,.03,.32,.15,.39,.64,.39,.55,0,.59-.03,.59-.59s-.05-.59-.55-.64c-.35-.03-.57,.03-.64,.2Z"/><path d="M20.21,40.95c-.07,.13-.07,.37,0,.5,.08,.22,.49,.25,2.65,.22,2.34-.05,2.56-.08,2.61-.37,.03-.17-.03-.37-.17-.45-.12-.08-1.29-.15-2.61-.15-1.98,0-2.41,.05-2.48,.25Z"/><path d="M2.67,11.94C.35,15.01-.61,20.03,.4,24.03c.69,2.78,3.18,6.68,4.05,6.35,.39-.15,.35-.62-.07-1-.67-.6-1.98-2.6-2.48-3.82C.21,21.5,.78,16.4,3.29,12.73c.47-.69,.57-.94,.42-1.11-.3-.37-.59-.28-1.04,.32Z"/><path d="M41.31,11.79c-.05,.15,.3,.72,.85,1.39,1.06,1.26,2.09,3.28,2.5,4.82,.92,3.45,.23,7.84-1.67,10.74-.8,1.22-.92,1.74-.42,1.74,.69,0,2.24-2.66,2.86-4.89,.82-2.96,.75-5.93-.18-8.74-1-3.01-3.5-6.2-3.94-5.06Z"/><path d="M5.34,16.8c-.8,1.36-.99,2.11-1,3.89,0,1.34,.08,1.86,.37,2.63,.49,1.21,1.46,2.48,1.89,2.48,.55,0,.55-.45,0-1.16-1-1.27-1.27-2.09-1.27-3.97,0-1.62,.03-1.74,.64-2.93,.74-1.46,.75-1.66,.2-1.66-.3,0-.5,.18-.82,.72Z"/><path d="M39.02,16.19c-.22,.22-.12,.49,.55,1.37,.37,.49,.79,1.27,.92,1.74,.52,1.76,.2,4.14-.75,5.48-.72,1.02-.02,1.61,.74,.62,.8-1.06,1.17-2.36,1.19-4.14,0-1.89-.3-2.9-1.27-4.25-.62-.85-1.07-1.14-1.37-.82Z"/></svg>