<svg width="139" height="138" viewBox="0 0 139 138" fill="none" xmlns="http://www.w3.org/2000/svg">
<path d="M69.5087 136.584C107.093 136.584 137.56 106.318 137.56 68.9823C137.56 31.6471 107.093 1.38086 69.5087 1.38086C31.9248 1.38086 1.45703 31.6471 1.45703 68.9823C1.45703 106.318 31.9248 136.584 69.5087 136.584Z" fill="#389B48"/>
<path d="M136.106 68.984C136.08 82.7056 131.782 96.151 123.783 107.34C115.784 118.529 104.971 126.587 92.4227 131.126C79.2586 135.895 64.6974 136.428 51.2222 132.619C38.2502 128.949 26.6158 121.305 18.0274 110.984C9.37941 100.578 4.08201 87.5009 3.08213 74.049C2.08224 60.5971 5.3269 46.4744 12.5247 34.6933C19.4709 23.3201 29.8472 14.203 42.0246 8.68413C54.6655 2.96133 69.1605 1.37593 82.7681 4.13209C96.3758 6.88825 108.288 13.5518 117.651 23.2805C127.048 33.0356 133.246 45.5534 135.338 58.8934C135.861 62.2284 136.093 65.6096 136.1 68.984C136.1 70.8324 139 70.839 138.993 68.984C138.967 54.7231 134.504 40.6134 126.147 28.9967C117.983 17.6432 106.481 8.90122 93.2901 4.09933C80.0996 -0.702567 64.4193 -1.38015 50.4474 2.56662C36.4755 6.51338 24.7352 14.3411 15.8422 25.1092C6.94919 35.8773 1.30747 49.5659 0.201644 63.6888C-0.904187 77.8116 2.55901 92.5528 10.0813 104.821C17.3056 116.602 28.1057 126.173 40.7664 131.856C54.1159 137.849 69.187 139.513 83.5429 136.605C97.8988 133.698 110.023 126.771 119.704 116.72C129.385 106.669 136.04 93.5065 138.172 79.6139C138.709 76.0947 138.993 72.5427 139 68.9775C139 67.1291 136.106 67.1225 136.106 68.9775V68.984Z" fill="black"/>
<path d="M133.32 9.42866C127.328 3.96897 118.819 3.99528 112.846 9.42866C97.4636 23.4199 83.7367 39.5425 71.4203 56.211C69.9966 58.1318 68.606 60.0788 67.2353 62.039C63.3219 57.8094 59.2826 53.6982 55.1308 49.6988C49.6877 44.4562 40.0001 43.9168 34.6564 49.6988C29.4186 55.369 28.8491 64.4466 34.6564 70.0379C37.5832 72.8532 40.4305 75.754 43.2447 78.6746C45.7941 81.3255 48.3038 84.0159 50.7538 86.7589C52.1047 88.2719 53.4422 89.8045 54.7467 91.3635C55.3427 92.0739 55.9387 92.7909 56.5214 93.5145C56.8061 93.8697 57.0842 94.2248 57.3689 94.58C57.6206 94.8892 57.5941 94.8498 57.4418 94.6459C60.4282 98.2111 63.9774 100.625 69.0232 100.625C74.069 100.625 79.0353 97.8954 81.525 93.5013C85.4782 86.5221 89.8684 79.7863 94.5632 73.2742C95.636 71.7875 96.722 70.3141 97.8212 68.8472C98.3642 68.1236 98.9137 67.4066 99.4633 66.6896C99.47 66.6765 99.4832 66.6633 99.4898 66.6567C99.6223 66.4923 99.7348 66.3475 99.7812 66.2817C101.986 63.4927 104.244 60.7366 106.542 58.02C113.601 49.6726 121.057 41.6277 128.884 33.9907C130.341 32.5699 131.804 31.149 133.314 29.7742C138.916 24.6828 138.902 14.5331 133.314 9.43524L133.32 9.42866Z" fill="white"/>
<path d="M134.34 8.4156C130.274 4.76484 124.791 3.08093 119.394 4.34389C116.686 4.97537 114.196 6.34362 112.11 8.15913C109.7 10.2509 107.402 12.5071 105.124 14.7371C95.8872 23.7817 87.3252 33.4907 79.2864 43.5944C74.6843 49.3764 70.2081 55.2638 65.9834 61.3221L68.2546 61.0325C65.5728 58.1382 62.8315 55.29 60.0371 52.5009C57.7327 50.2052 55.4879 47.6399 52.5611 46.1072C47.6345 43.5287 41.3042 43.3643 36.5034 46.3375C31.7026 49.3107 28.7891 55.2834 29.0738 60.9076C29.2195 63.7821 30.1267 66.637 31.8351 68.9787C32.8217 70.3338 34.0401 71.4586 35.2387 72.6295C36.6491 74.0174 38.0463 75.4185 39.4302 76.8261C42.463 79.9178 45.4494 83.0555 48.3563 86.259C49.8197 87.8706 51.2699 89.5019 52.6869 91.1595C53.998 92.6922 55.2098 94.3104 56.5342 95.8233C57.6069 97.0468 59.7192 95.4417 58.8054 94.0801C58.7723 94.0275 58.7326 93.9683 58.6862 93.9222L56.415 95.6655C58.9379 98.6453 62.1825 101.099 66.1158 101.796C70.261 102.533 74.6446 101.632 78.1078 99.2372C79.803 98.0598 81.273 96.5996 82.392 94.8696C83.7098 92.8238 84.8421 90.6531 86.1069 88.5744C88.7688 84.2198 91.5897 79.9574 94.5363 75.7869C100.383 67.5251 106.734 59.7959 113.501 52.1918C116.898 48.3766 120.374 44.6403 123.937 40.9764C125.685 39.1872 127.446 37.4113 129.234 35.6615C131.022 33.9118 133.002 32.1686 134.797 30.3465C140.518 24.525 140.319 13.9805 134.333 8.4156C132.976 7.15263 130.923 9.1787 132.287 10.4482C136.902 14.7305 137.399 22.8542 133.32 27.6824C131.903 29.3598 130.115 30.7675 128.546 32.2935C126.817 33.9709 125.109 35.6614 123.42 37.3783C119.977 40.8646 116.613 44.4298 113.329 48.0608C106.899 55.165 100.701 62.4929 95.0197 70.1957C92.126 74.1227 89.3317 78.1287 86.683 82.2202C85.352 84.2725 84.0541 86.3511 82.796 88.4495C81.6571 90.3505 80.6903 92.4686 79.3262 94.2183C76.7768 97.4744 72.6316 99.3227 68.4996 99.178C64.3677 99.0333 61.0701 96.7113 58.4677 93.6328C57.4215 92.3962 55.2098 94.0605 56.1964 95.3761C56.2362 95.4287 56.2759 95.4813 56.3157 95.5339L58.5869 93.7907C56.3024 91.1924 54.1901 88.4494 51.8857 85.8642C49.5814 83.2791 46.9988 80.5099 44.4892 77.8919C41.9796 75.2738 39.4302 72.6755 36.8345 70.143C35.8015 69.13 34.742 68.1696 33.9474 66.9461C33.2455 65.8673 32.729 64.7163 32.3913 63.4796C31.0935 58.6843 32.7952 53.2377 36.4902 49.9159C40.1851 46.594 45.6547 46.2585 50.0581 48.0806C53.0975 49.337 55.2628 51.8038 57.5407 54.0732C60.494 57.0069 63.381 59.9998 66.2085 63.052C66.8839 63.7821 67.9766 63.4862 68.4798 62.7626C75.5849 52.5668 83.3257 42.7656 91.4969 33.3986C95.5759 28.7217 99.794 24.1566 104.164 19.7428C106.323 17.5589 108.521 15.4146 110.76 13.3097C112.799 11.3889 114.772 9.34968 117.328 8.09987C122.328 5.65288 128.221 6.7909 132.287 10.4417C133.664 11.6783 135.724 9.65224 134.333 8.40901L134.34 8.4156Z" fill="black"/>
</svg>
