<svg width="8" height="12" viewBox="0 0 8 12" fill="none" xmlns="http://www.w3.org/2000/svg">
<path fill-rule="evenodd" clip-rule="evenodd" d="M5.59327 0.474926L0.803281 5.26493C0.383281 5.66493 0.383281 6.34493 0.803281 6.76493L5.59327 11.5249C6.02327 11.9749 6.61329 12.0649 7.04329 11.6349L7.21328 11.4649C7.55329 11.0649 7.63328 10.6149 7.27328 10.2749C6.11328 9.11493 4.92327 7.92494 3.73327 6.73494C3.33327 6.33494 3.33327 5.65493 3.73327 5.26493C4.92327 4.07493 6.11328 2.88493 7.27328 1.72493C7.64328 1.38493 7.55329 0.934939 7.21328 0.534939L7.04329 0.364926C6.61329 -0.0650744 6.02327 0.0249262 5.59327 0.474926Z" fill="#13110C"/>
</svg>
