<svg width="8" height="12" viewBox="0 0 8 12" fill="none" xmlns="http://www.w3.org/2000/svg">
<path fill-rule="evenodd" clip-rule="evenodd" d="M2.40673 11.5251L7.19672 6.73507C7.61672 6.33507 7.61672 5.65507 7.19672 5.23507L2.40673 0.475071C1.97673 0.0250711 1.38671 -0.06493 0.956713 0.36507L0.786715 0.535069C0.446715 0.935068 0.366717 1.38507 0.726717 1.72507C1.88672 2.88507 3.07673 4.07506 4.26673 5.26506C4.66673 5.66506 4.66673 6.34507 4.26673 6.73507C3.07673 7.92507 1.88672 9.11507 0.726717 10.2751C0.356718 10.6151 0.446715 11.0651 0.786715 11.4651L0.956713 11.6351C1.38671 12.0651 1.97673 11.9751 2.40673 11.5251Z" fill="#13110C"/>
</svg>
